<svg width="202" height="68" viewBox="0 0 202 68" fill="none" xmlns="http://www.w3.org/2000/svg">
<path d="M31.6928 43.4154L31.088 47.9854C31.0391 48.3542 31.1882 48.7221 31.4984 48.9978C31.8083 49.2735 32.2501 49.4307 32.7137 49.4307H49.9981C50.4615 49.4307 50.9033 49.2733 51.2135 48.9978C51.5234 48.7221 51.6725 48.3542 51.6239 47.9854L51.019 43.4154H72.5484C75.8993 43.4154 78.6253 41.2346 78.6253 38.5539V4.86154C78.6251 2.18081 75.8989 0 72.5482 0H8.85567C5.50477 0 2.77875 2.18081 2.77875 4.86154V38.5539C2.77875 41.2346 5.50477 43.4154 8.85567 43.4154H31.6928ZM48.181 46.8154H34.5304L34.9803 43.4154H47.7309L48.181 46.8154ZM8.85567 2.61551H72.5482C74.0964 2.61551 75.3557 3.62301 75.3557 4.86154V34.523H6.04814V4.86154C6.04814 3.62301 7.30751 2.61551 8.85567 2.61551ZM6.04814 38.5539V37.1385H75.3555V38.5539C75.3555 39.7924 74.0961 40.7999 72.548 40.7999H8.85567C7.30751 40.7999 6.04814 39.7924 6.04814 38.5539Z" fill="black"/>
<path d="M72.5031 58.2171C72.7995 57.8265 72.8197 57.3406 72.5562 56.9352L69.3276 51.9659C69.0462 51.5329 68.4871 51.2613 67.8771 51.2613H13.5267C12.9169 51.2613 12.3576 51.5329 12.0762 51.9659L8.84759 56.9352C8.5843 57.3406 8.60435 57.8265 8.90078 58.2171C9.1972 58.6077 9.72706 58.8461 10.2981 58.8461H71.1057C71.6768 58.8462 72.2066 58.6077 72.5031 58.2171ZM12.9901 56.2307L14.5193 53.8769H66.8843L68.4137 56.2307H12.9901Z" fill="black"/>
<path d="M75.3557 61.1998H72.7402C68.9547 61.1998 65.8747 63.6636 65.8747 66.6922C65.8747 67.4145 66.6066 68 67.5094 68H80.5863C81.4891 68 82.221 67.4145 82.221 66.6922C82.2212 63.6638 79.1414 61.1998 75.3557 61.1998ZM69.5377 65.3845C70.1338 64.4539 71.3457 63.8153 72.7402 63.8153H75.3557C76.7502 63.8153 77.9621 64.4539 78.5584 65.3845H69.5377Z" fill="black"/>
<path d="M101.841 49.2727C101.841 51.1136 101.509 52.7045 100.844 54.0455C100.179 55.3864 99.267 56.4205 98.108 57.1477C96.9489 57.875 95.625 58.2386 94.1364 58.2386C92.6477 58.2386 91.3239 57.875 90.1648 57.1477C89.0057 56.4205 88.0938 55.3864 87.429 54.0455C86.7642 52.7045 86.4318 51.1136 86.4318 49.2727C86.4318 47.4318 86.7642 45.8409 87.429 44.5C88.0938 43.1591 89.0057 42.125 90.1648 41.3977C91.3239 40.6705 92.6477 40.3068 94.1364 40.3068C95.625 40.3068 96.9489 40.6705 98.108 41.3977C99.267 42.125 100.179 43.1591 100.844 44.5C101.509 45.8409 101.841 47.4318 101.841 49.2727ZM99.7955 49.2727C99.7955 47.7614 99.5426 46.4858 99.0369 45.446C98.5369 44.4062 97.858 43.6193 97 43.0852C96.1477 42.5511 95.1932 42.2841 94.1364 42.2841C93.0795 42.2841 92.1222 42.5511 91.2642 43.0852C90.4119 43.6193 89.733 44.4062 89.2273 45.446C88.7273 46.4858 88.4773 47.7614 88.4773 49.2727C88.4773 50.7841 88.7273 52.0597 89.2273 53.0994C89.733 54.1392 90.4119 54.9261 91.2642 55.4602C92.1222 55.9943 93.0795 56.2614 94.1364 56.2614C95.1932 56.2614 96.1477 55.9943 97 55.4602C97.858 54.9261 98.5369 54.1392 99.0369 53.0994C99.5426 52.0597 99.7955 50.7841 99.7955 49.2727ZM105.122 58V44.9091H107.065V46.9545H107.236C107.509 46.2557 107.949 45.7131 108.557 45.3267C109.165 44.9347 109.895 44.7386 110.747 44.7386C111.611 44.7386 112.33 44.9347 112.903 45.3267C113.483 45.7131 113.935 46.2557 114.259 46.9545H114.395C114.73 46.2784 115.233 45.7415 115.903 45.3438C116.574 44.9403 117.378 44.7386 118.315 44.7386C119.486 44.7386 120.443 45.1051 121.188 45.8381C121.932 46.5653 122.304 47.6989 122.304 49.2386V58H120.293V49.2386C120.293 48.2727 120.028 47.5824 119.5 47.1676C118.972 46.7528 118.349 46.5455 117.634 46.5455C116.713 46.5455 116 46.8239 115.494 47.3807C114.989 47.9318 114.736 48.6307 114.736 49.4773V58H112.69V49.0341C112.69 48.2898 112.449 47.6903 111.966 47.2358C111.483 46.7756 110.861 46.5455 110.099 46.5455C109.577 46.5455 109.088 46.6847 108.634 46.9631C108.185 47.2415 107.821 47.6278 107.543 48.1222C107.27 48.6108 107.134 49.1761 107.134 49.8182V58H105.122ZM131.266 63.1818C130.294 63.1818 129.459 63.0568 128.76 62.8068C128.061 62.5625 127.479 62.2386 127.013 61.8352C126.553 61.4375 126.186 61.0114 125.913 60.5568L127.516 59.4318C127.697 59.6705 127.928 59.9432 128.206 60.25C128.484 60.5625 128.865 60.8324 129.348 61.0597C129.837 61.2926 130.476 61.4091 131.266 61.4091C132.322 61.4091 133.195 61.1534 133.882 60.642C134.57 60.1307 134.913 59.3295 134.913 58.2386V55.5795H134.743C134.595 55.8182 134.385 56.1136 134.112 56.4659C133.845 56.8125 133.459 57.1222 132.953 57.3949C132.453 57.6619 131.777 57.7955 130.925 57.7955C129.868 57.7955 128.919 57.5455 128.078 57.0455C127.243 56.5455 126.581 55.8182 126.092 54.8636C125.609 53.9091 125.368 52.75 125.368 51.3864C125.368 50.0455 125.604 48.8778 126.075 47.8835C126.547 46.8835 127.203 46.1108 128.044 45.5653C128.885 45.0142 129.857 44.7386 130.959 44.7386C131.811 44.7386 132.487 44.8807 132.987 45.1648C133.493 45.4432 133.879 45.7614 134.146 46.1193C134.419 46.4716 134.629 46.7614 134.777 46.9886H134.982V44.9091H136.925V58.375C136.925 59.5 136.669 60.4148 136.158 61.1193C135.652 61.8295 134.97 62.3494 134.112 62.679C133.26 63.0142 132.311 63.1818 131.266 63.1818ZM131.197 55.9886C132.004 55.9886 132.686 55.804 133.243 55.4347C133.8 55.0653 134.223 54.5341 134.513 53.8409C134.803 53.1477 134.947 52.3182 134.947 51.3523C134.947 50.4091 134.805 49.5767 134.521 48.8551C134.237 48.1335 133.817 47.5682 133.26 47.1591C132.703 46.75 132.016 46.5455 131.197 46.5455C130.345 46.5455 129.635 46.7614 129.067 47.1932C128.504 47.625 128.081 48.2045 127.797 48.9318C127.518 49.6591 127.379 50.4659 127.379 51.3523C127.379 52.2614 127.521 53.0653 127.805 53.7642C128.095 54.4574 128.521 55.0028 129.084 55.4006C129.652 55.7926 130.357 55.9886 131.197 55.9886ZM150.425 44.9091C150.322 44.0455 149.908 43.375 149.18 42.8977C148.453 42.4205 147.561 42.1818 146.504 42.1818C145.732 42.1818 145.055 42.3068 144.476 42.5568C143.902 42.8068 143.453 43.1506 143.129 43.5881C142.811 44.0256 142.652 44.5227 142.652 45.0795C142.652 45.5455 142.763 45.946 142.984 46.2812C143.212 46.6108 143.501 46.8864 143.854 47.108C144.206 47.3239 144.575 47.5028 144.962 47.6449C145.348 47.7812 145.703 47.892 146.027 47.9773L147.8 48.4545C148.254 48.5739 148.76 48.7386 149.317 48.9489C149.879 49.1591 150.416 49.446 150.928 49.8097C151.445 50.1676 151.871 50.6278 152.206 51.1903C152.541 51.7528 152.709 52.4432 152.709 53.2614C152.709 54.2045 152.462 55.0568 151.967 55.8182C151.479 56.5795 150.763 57.1847 149.82 57.6335C148.882 58.0824 147.743 58.3068 146.402 58.3068C145.152 58.3068 144.07 58.1051 143.155 57.7017C142.246 57.2983 141.53 56.7358 141.007 56.0142C140.49 55.2926 140.197 54.4545 140.129 53.5H142.311C142.368 54.1591 142.589 54.7045 142.976 55.1364C143.368 55.5625 143.862 55.8807 144.459 56.0909C145.061 56.2955 145.709 56.3977 146.402 56.3977C147.209 56.3977 147.933 56.267 148.575 56.0057C149.217 55.7386 149.726 55.3693 150.101 54.8977C150.476 54.4205 150.663 53.8636 150.663 53.2273C150.663 52.6477 150.501 52.1761 150.178 51.8125C149.854 51.4489 149.428 51.1534 148.899 50.9261C148.371 50.6989 147.8 50.5 147.186 50.3295L145.038 49.7159C143.675 49.3239 142.595 48.7642 141.8 48.0369C141.004 47.3097 140.607 46.358 140.607 45.1818C140.607 44.2045 140.871 43.3523 141.399 42.625C141.933 41.892 142.649 41.3239 143.547 40.9205C144.45 40.5114 145.459 40.3068 146.572 40.3068C147.697 40.3068 148.697 40.5085 149.572 40.9119C150.447 41.3097 151.141 41.8551 151.652 42.5483C152.169 43.2415 152.442 44.0284 152.47 44.9091H150.425ZM157.923 50.125V58H155.911V40.5455H157.923V46.9545H158.093C158.4 46.2784 158.86 45.7415 159.474 45.3438C160.093 44.9403 160.917 44.7386 161.945 44.7386C162.837 44.7386 163.619 44.9176 164.289 45.2756C164.96 45.6278 165.479 46.1705 165.849 46.9034C166.224 47.6307 166.411 48.5568 166.411 49.6818V58H164.4V49.8182C164.4 48.7784 164.13 47.9744 163.59 47.4062C163.056 46.8324 162.315 46.5455 161.366 46.5455C160.707 46.5455 160.116 46.6847 159.593 46.9631C159.076 47.2415 158.667 47.6477 158.366 48.1818C158.07 48.7159 157.923 49.3636 157.923 50.125ZM175.409 58.2727C174.227 58.2727 173.19 57.9915 172.298 57.429C171.412 56.8665 170.719 56.0795 170.219 55.0682C169.724 54.0568 169.477 52.875 169.477 51.5227C169.477 50.1591 169.724 48.9687 170.219 47.9517C170.719 46.9347 171.412 46.1449 172.298 45.5824C173.19 45.0199 174.227 44.7386 175.409 44.7386C176.591 44.7386 177.625 45.0199 178.511 45.5824C179.403 46.1449 180.097 46.9347 180.591 47.9517C181.091 48.9687 181.341 50.1591 181.341 51.5227C181.341 52.875 181.091 54.0568 180.591 55.0682C180.097 56.0795 179.403 56.8665 178.511 57.429C177.625 57.9915 176.591 58.2727 175.409 58.2727ZM175.409 56.4659C176.307 56.4659 177.045 56.2358 177.625 55.7756C178.205 55.3153 178.634 54.7102 178.912 53.9602C179.19 53.2102 179.33 52.3977 179.33 51.5227C179.33 50.6477 179.19 49.8324 178.912 49.0767C178.634 48.321 178.205 47.7102 177.625 47.2443C177.045 46.7784 176.307 46.5455 175.409 46.5455C174.511 46.5455 173.773 46.7784 173.193 47.2443C172.614 47.7102 172.185 48.321 171.906 49.0767C171.628 49.8324 171.489 50.6477 171.489 51.5227C171.489 52.3977 171.628 53.2102 171.906 53.9602C172.185 54.7102 172.614 55.3153 173.193 55.7756C173.773 56.2358 174.511 56.4659 175.409 56.4659ZM184.411 62.9091V44.9091H186.354V46.9886H186.593C186.741 46.7614 186.945 46.4716 187.207 46.1193C187.474 45.7614 187.854 45.4432 188.349 45.1648C188.849 44.8807 189.525 44.7386 190.377 44.7386C191.479 44.7386 192.451 45.0142 193.292 45.5653C194.133 46.1165 194.789 46.8977 195.261 47.9091C195.732 48.9205 195.968 50.1136 195.968 51.4886C195.968 52.875 195.732 54.0767 195.261 55.0938C194.789 56.1051 194.136 56.8892 193.3 57.446C192.465 57.9972 191.502 58.2727 190.411 58.2727C189.57 58.2727 188.897 58.1335 188.391 57.8551C187.886 57.571 187.496 57.25 187.224 56.892C186.951 56.5284 186.741 56.2273 186.593 55.9886H186.423V62.9091H184.411ZM186.388 51.4545C186.388 52.4432 186.533 53.3153 186.823 54.071C187.113 54.821 187.536 55.4091 188.093 55.8352C188.65 56.2557 189.332 56.4659 190.138 56.4659C190.979 56.4659 191.681 56.2443 192.244 55.8011C192.812 55.3523 193.238 54.75 193.522 53.9943C193.812 53.233 193.957 52.3864 193.957 51.4545C193.957 50.5341 193.815 49.7045 193.531 48.9659C193.252 48.2216 192.829 47.6335 192.261 47.2017C191.698 46.7642 190.991 46.5455 190.138 46.5455C189.32 46.5455 188.633 46.7528 188.076 47.1676C187.519 47.5767 187.099 48.1506 186.815 48.8892C186.531 49.6222 186.388 50.4773 186.388 51.4545Z" fill="black"/>
</svg>
